<?xml version="1.0" encoding="UTF-8" standalone="no"?>
<!-- Created with Inkscape (http://www.inkscape.org/) -->

<svg
   xmlns:dc="http://purl.org/dc/elements/1.1/"
   xmlns:cc="http://creativecommons.org/ns#"
   xmlns:rdf="http://www.w3.org/1999/02/22-rdf-syntax-ns#"
   xmlns:svg="http://www.w3.org/2000/svg"
   xmlns="http://www.w3.org/2000/svg"
   xmlns:sodipodi="http://sodipodi.sourceforge.net/DTD/sodipodi-0.dtd"
   xmlns:inkscape="http://www.inkscape.org/namespaces/inkscape"
   width="210mm"
   height="297mm"
   viewBox="0 0 210 297"
   version="1.1"
   id="svg8"
   inkscape:version="0.92.4 (5da689c313, 2019-01-14)"
   sodipodi:docname="Sketch.svg">
  <defs
     id="defs2" />
  <sodipodi:namedview
     id="base"
     pagecolor="#ffffff"
     bordercolor="#666666"
     borderopacity="1.0"
     inkscape:pageopacity="0.0"
     inkscape:pageshadow="2"
     inkscape:zoom="0.7"
     inkscape:cx="335.49804"
     inkscape:cy="556.84848"
     inkscape:document-units="mm"
     inkscape:current-layer="layer1"
     showgrid="false"
     inkscape:window-width="1276"
     inkscape:window-height="981"
     inkscape:window-x="1600"
     inkscape:window-y="18"
     inkscape:window-maximized="0" />
  <metadata
     id="metadata5">
    <rdf:RDF>
      <cc:Work
         rdf:about="">
        <dc:format>image/svg+xml</dc:format>
        <dc:type
           rdf:resource="http://purl.org/dc/dcmitype/StillImage" />
        <dc:title></dc:title>
      </cc:Work>
    </rdf:RDF>
  </metadata>
  <g
     inkscape:label="Layer 1"
     inkscape:groupmode="layer"
     id="layer1">
    <path
       style="fill:none;stroke:#000000;stroke-width:0.26458332px;stroke-linecap:butt;stroke-linejoin:miter;stroke-opacity:1"
       d="M 45.735118,86.089285 L 48.002975,83.443452 L 49.892857,81.931546 L 51.026784,80.797619 L 52.160714,79.285713 L 52.916666,78.529761 L 53.294642,78.151785 L 53.672618,77.773809 H 54.050593 L 54.806548,77.395831 L 55.184523,77.017855 H 55.562499 L 56.318451,76.639879 H 56.696427 L 57.074405,76.261904 H 57.452381 H 58.208333 L 58.586308,75.883928 H 60.854166 L 61.610118,75.505952 H 61.988093 H 64.255951 L 65.011905,75.127976 H 65.389881 H 66.145832 H 67.657738 H 73.327381"
       id="path815"
       inkscape:connector-curvature="0"
       sodipodi:nodetypes="ccccccccccccccccccccccccccc" />
    <path
       style="fill:none;stroke:#000000;stroke-width:0.26458332px;stroke-linecap:butt;stroke-linejoin:miter;stroke-opacity:1"
       d="M 73.327381,75.127976 H 81.642856 H 82.398808 L 83.15476,75.505952 H 83.532738 L 83.910714,75.883928 H 84.28869 L 84.666666,76.261904 H 86.178571 L 87.312499,77.017855 H 89.580356 L 89.958332,77.395831 H 90.714284 H 91.848214 L 95.249999,77.773809 L 97.13988,78.151785 H 98.651784 H 99.02976 L 99.407738,78.529761 H 99.785714 L 101.29762,80.041664 V 80.797619 L 101.67559,81.55357 V 81.931546 L 102.05357,82.687498 L 102.43155,83.443452 H 103.94345 L 105.45536,83.821428"
       id="path817"
       inkscape:connector-curvature="0"
       sodipodi:nodetypes="cccccccccccccccccccccccccccc" />
    <path
       style="fill:none;stroke:#000000;stroke-width:0.26458332px;stroke-linecap:butt;stroke-linejoin:miter;stroke-opacity:1"
       d="M 105.45536,83.821428 L 111.125,85.711309 L 111.88095,87.223213 L 112.6369,87.979164 L 113.39286,89.113094 H 113.77083 L 115.28274,90.624998 H 115.66071 L 116.41667,91.002976 L 117.92857,92.136903 H 118.68452 L 120.19643,92.892855 L 120.95238,93.270831 H 121.70833 L 123.22024,94.782737 L 124.73214,97.428571 V 97.806548 L 125.86607,98.940476 L 126.62202,99.318452 H 128.13393 L 129.64583,100.0744"
       id="path819"
       inkscape:connector-curvature="0"
       sodipodi:nodetypes="ccccccccccccccccccccc" />
    <path
       style="fill:none;stroke:#000000;stroke-width:0.26458332px;stroke-linecap:butt;stroke-linejoin:miter;stroke-opacity:1"
       d="M 136.82738,114.81548 L 137.58333,116.70535 L 139.09524,118.21726 L 139.47321,118.59524 L 139.85119,118.97321 H 140.22916 L 140.60714,119.35119 H 140.98512 H 140.60714"
       id="path821"
       inkscape:connector-curvature="0"
       sodipodi:nodetypes="ccccccccc" />
    <path
       style="fill:none;stroke:#000000;stroke-width:0.26458332px;stroke-linecap:butt;stroke-linejoin:miter;stroke-opacity:1"
       d="M 150.43452,118.97321 L 153.45833,119.35119 L 154.21428,119.72916 H 154.97024 H 156.10416 H 160.2619 H 163.28571 H 164.79762 L 165.93155,118.97321 H 166.30952 L 168.1994,117.46131 L 168.57738,117.08333 V 116.70535 L 169.33333,115.9494 V 115.57143 L 170.46726,114.4375 L 171.22321,113.68155 L 171.60119,113.30357 L 173.86905,112.16964 H 174.24702 L 174.625,111.79166 H 175.00297 H 175.75893 L 176.1369,111.41369 L 177.27083,111.03571 L 177.64881,110.65774 H 178.40476 L 178.78274,110.27976 L 179.16071,109.90178 V 109.52381 V 106.87798 L 179.53869,106.5 V 106.12202 L 179.91666,105.36607 V 104.23214 L 180.29464,103.47619 V 101.58631 V 99.696427 L 179.91666,99.318452 L 179.53869,98.940476 H 178.78274 H 178.40476 L 178.02678,98.562497"
       id="path823"
       inkscape:connector-curvature="0"
       sodipodi:nodetypes="ccccccccccccccccccccccccccccccccccccccccccc" />
    <path
       style="fill:none;stroke:#000000;stroke-width:0.26458332px;stroke-linecap:butt;stroke-linejoin:miter;stroke-opacity:1"
       d="M 178.02678,98.562495 L 171.60119,98.184522 L 170.08928,98.940476 L 167.44345,100.83035 L 165.93155,101.96428"
       id="path825"
       inkscape:connector-curvature="0"
       sodipodi:nodetypes="ccccc" />
    <path
       style="fill:none;stroke:#000000;stroke-width:0.26458332px;stroke-linecap:butt;stroke-linejoin:miter;stroke-opacity:1"
       d="M 45.735118,86.089285 L 48.002975,86.467261 H 48.758927 H 50.648809 H 55.562499 H 57.452381 H 58.586308 H 58.964284 L 59.720238,86.089285 H 61.232142 H 64.633927 H 68.035714 H 69.925593 L 70.681547,85.711309 H 71.059523 L 72.193451,84.577379 L 73.327381,83.821428 L 74.461308,82.687498 L 74.839284,82.309522 L 75.973214,81.931546 L 76.729166,81.55357 H 77.107142 L 77.863093,80.797619 L 78.241072,80.419643 H 78.619047 H 79.374999 L 80.130951,80.041664 H 80.508926 L 81.264881,79.663689 H 82.398808 L 83.910714,80.797619 L 84.28869,81.931546 L 84.666666,82.309522 L 85.044641,83.065476 L 85.800593,83.821428 L 87.690475,85.711309"
       id="path827"
       inkscape:connector-curvature="0"
       sodipodi:nodetypes="cccccccccccccccccccccccccccccccccccc" />
    <path
       style="fill:none;stroke:#000000;stroke-width:0.26458332px;stroke-linecap:butt;stroke-linejoin:miter;stroke-opacity:1"
       d="M 87.690475,85.711307 L 92.982141,89.113094 V 89.49107 L 93.360117,89.869046 L 93.738093,90.247022 L 94.494047,90.624998 L 94.872023,91.002976 H 95.249999 L 96.383926,91.380952 L 98.273808,91.758928 L 101.29762,92.892855 L 101.67559,93.270831 L 102.80952,94.026785 L 103.94345,94.782737 L 104.6994,96.294643 L 105.07738,97.42857"
       id="path829"
       inkscape:connector-curvature="0"
       sodipodi:nodetypes="cccccccccccccccc" />
    <path
       style="fill:none;stroke:#000000;stroke-width:0.26458332px;stroke-linecap:butt;stroke-linejoin:miter;stroke-opacity:1"
       d="M 109.23512,103.85416 L 110.74702,106.12202 V 106.5 L 111.125,106.87798 L 111.88095,107.63393 H 112.6369 L 116.79464,110.27976 L 119.44047,111.41369 L 121.33036,112.54762 L 122.08631,112.92559 L 122.46428,113.30357 H 122.84226 L 123.22024,113.68155 L 123.59821,114.05952 L 124.73214,115.9494 L 125.11012,116.32738 H 125.4881 H 125.86607 H 126.62202 H 127 L 130.02381,112.9256 V 112.54762 L 130.40179,111.41369 L 130.77976,111.03571 L 131.15774,110.27976 L 131.91369,109.52381 V 109.14583 L 132.66964,108.76786 L 136.82738,114.81548"
       id="path831"
       inkscape:connector-curvature="0"
       sodipodi:nodetypes="ccccccccccccccccccccccccccccc" />
    <path
       style="fill:none;stroke:#000000;stroke-width:0.26458332px;stroke-linecap:butt;stroke-linejoin:miter;stroke-opacity:1"
       d="M 136.82738,114.81548 L 137.96131,109.90178 L 140.22916,111.03571 H 141.36309 L 142.11905,111.41369 L 136.82738,114.81548"
       id="path833"
       inkscape:connector-curvature="0"
       sodipodi:nodetypes="cccccc" />
    <path
       style="fill:none;stroke:#000000;stroke-width:0.26458332px;stroke-linecap:butt;stroke-linejoin:miter;stroke-opacity:1"
       d="M 150.43452,118.97321 L 150.05655,112.92559 H 150.8125 L 150.43452,118.97321"
       id="path835"
       inkscape:connector-curvature="0"
       sodipodi:nodetypes="cccc" />
    <path
       style="fill:none;stroke:#000000;stroke-width:0.26458332px;stroke-linecap:butt;stroke-linejoin:miter;stroke-opacity:1"
       d="M 150.43452,118.97321 L 153.45833,112.92559 H 153.83631 L 154.59226,112.16964 H 155.72619 L 156.10416,111.79166 H 156.86012 L 157.23809,111.41369 H 157.61607 H 158.37202 H 160.2619 L 161.77381,111.03571 H 162.52976 L 163.28571,110.65774 H 165.17559 H 165.55357 L 166.30952,110.27976 H 167.06547 H 168.95536 H 169.33333 L 170.08928,109.90178 L 176.1369,111.41369"
       id="path837"
       inkscape:connector-curvature="0"
       sodipodi:nodetypes="cccccccccccccccccccccc" />
    <path
       style="fill:none;stroke:#000000;stroke-width:0.26458332px;stroke-linecap:butt;stroke-linejoin:miter;stroke-opacity:1"
       d="M 176.1369,111.41369 L 175.75893,110.65774 L 177.64881,111.79166 L 179.91666,112.16964 L 181.80655,113.30357 L 184.45238,113.68155 L 186.34226,114.05952 H 187.09821 L 187.85416,114.4375 L 60.098214,115.57143"
       id="path839"
       inkscape:connector-curvature="0"
       sodipodi:nodetypes="cccccccccc" />
    <path
       style="fill:none;stroke:#000000;stroke-width:0.26458332px;stroke-linecap:butt;stroke-linejoin:miter;stroke-opacity:1"
       d="M 61.232142,100.45238 L 62.744048,101.20833 H 63.122023 H 63.877975 L 65.767857,101.58631 H 68.41369 H 71.437499 H 82.398808 H 85.422617 H 89.580356 L 96.00595,102.34226 H 102.43155 H 108.10119 H 111.88095 L 116.79464,102.72024 H 118.68452 L 119.81845,102.34226 H 120.5744 L 122.08631,101.58631 L 123.97619,101.20833 L 125.48809,100.0744 L 128.13393,98.940476 L 129.26786,98.562497 L 131.53571,97.050594 L 133.80357,96.294643 L 135.69345,95.160713 L 136.07143,94.782737 L 137.58333,94.026785 L 138.33928,93.648809 H 138.71726 L 140.22916,92.136903 H 140.60714 L 140.98512,91.758928 H 142.11905 L 142.49702,91.380952 L 143.63095,91.002976"
       id="path841"
       inkscape:connector-curvature="0"
       sodipodi:nodetypes="cccccccccccccccccccccccccccccccccccc" />
    <path
       style="fill:none;stroke:#000000;stroke-width:0.26458332px;stroke-linecap:butt;stroke-linejoin:miter;stroke-opacity:1"
       d="M 143.63095,91.002976 L 142.11905,85.711309 L 143.63095,91.002976"
       id="path843"
       inkscape:connector-curvature="0"
       sodipodi:nodetypes="ccc" />
    <path
       style="fill:none;stroke:#000000;stroke-width:0.26458332px;stroke-linecap:butt;stroke-linejoin:miter;stroke-opacity:1"
       d="M 148.92262,77.773809 L 188.61012,83.443452"
       id="path845"
       inkscape:connector-curvature="0"
       sodipodi:nodetypes="cc" />
    <path
       style="fill:none;stroke:#000000;stroke-width:0.26458332px;stroke-linecap:butt;stroke-linejoin:miter;stroke-opacity:1"
       d="M 112.25893,60.008928 L 109.61309,60.386904 H 108.47917 H 104.32143 H 92.982141 H 58.964284 H 50.648809 H 48.380951 H 47.247024 H 46.869048 L 46.113094,60.008928 H 45.735118 L 44.60119,59.630952"
       id="path847"
       inkscape:connector-curvature="0"
       sodipodi:nodetypes="ccccccccccccc" />
    <path
       style="fill:none;stroke:#000000;stroke-width:0.26458332px;stroke-linecap:butt;stroke-linejoin:miter;stroke-opacity:1"
       d="M 126.24405,63.788689 H 137.58333 L 142.49702,64.544643 H 153.45833 L 158.37202,65.300595 H 160.63988 H 163.28571 H 164.79762 L 168.95536,66.056546 H 169.71131 H 171.97916"
       id="path849"
       inkscape:connector-curvature="0"
       sodipodi:nodetypes="ccccccccccc" />
    <path
       style="fill:none;stroke:#000000;stroke-width:0.26458332px;stroke-linecap:butt;stroke-linejoin:miter;stroke-opacity:1"
       d="M 132.29166,74.749998 H 145.14286 H 152.3244 L 164.41964,75.505952 H 170.08928 H 170.84524 H 171.22321 L 171.60119,75.883928"
       id="path851"
       inkscape:connector-curvature="0"
       sodipodi:nodetypes="cccccccc" />
    <path
       style="fill:none;stroke:#000000;stroke-width:0.26458332px;stroke-linecap:butt;stroke-linejoin:miter;stroke-opacity:1"
       d="M 60.854166,51.315476 L 61.988093,53.205356 L 63.499999,53.583331 L 68.035714,54.717261 L 71.815475,55.473213 H 74.839284 L 78.997023,55.851189 L 89.580356,57.363095 L 95.249999,58.119046 H 98.273808 H 107.34524 H 113.39286 H 116.41667 H 116.79464 H 117.17262 H 116.79464 L 112.25893,60.008928"
       id="path853"
       inkscape:connector-curvature="0"
       sodipodi:nodetypes="ccccccccccccccccc" />
    <path
       style="fill:none;stroke:#000000;stroke-width:0.26458332px;stroke-linecap:butt;stroke-linejoin:miter;stroke-opacity:1"
       d="M 78.619047,129.17857 L 82.398808,129.93452 L 83.532738,130.3125 L 85.800593,130.69048 L 88.824405,131.8244 H 91.848214 L 94.494047,132.58035 H 97.13988 L 100.16369,132.95833 H 104.32143 L 108.10119,133.71428 H 111.88095 H 117.17262 L 121.33036,134.47024 L 128.88988,134.84821 L 137.20536,136.36012 H 139.47321 H 140.22916 L 140.98512,136.73809 L 143.25297,137.11607 L 145.14286,137.49405 H 149.30059 H 156.10416 H 159.50595 L 163.28571,138.62798"
       id="path855"
       inkscape:connector-curvature="0"
       sodipodi:nodetypes="ccccccccccccccccccccccccc" />
    <path
       style="fill:none;stroke:#000000;stroke-width:0.26458332px;stroke-linecap:butt;stroke-linejoin:miter;stroke-opacity:1"
       d="M 111.125,123.8869 H 109.23512 L 108.47917,124.64285 H 108.10119 H 106.21131 H 105.45536 L 103.56547,125.02083 H 102.80952 H 101.67559 H 99.02976"
       id="path857"
       inkscape:connector-curvature="0"
       sodipodi:nodetypes="cccccccccc" />
    <path
       style="fill:none;stroke:#000000;stroke-width:0.26458332px;stroke-linecap:butt;stroke-linejoin:miter;stroke-opacity:1"
       d="M 89.580356,124.26488 L 86.934523,123.8869 H 85.800593"
       id="path859"
       inkscape:connector-curvature="0"
       sodipodi:nodetypes="ccc" />
    <path
       style="fill:none;stroke:#000000;stroke-width:0.26458332px;stroke-linecap:butt;stroke-linejoin:miter;stroke-opacity:1"
       d="M 85.800593,123.8869 L 72.193451,121.99702"
       id="path861"
       inkscape:connector-curvature="0"
       sodipodi:nodetypes="cc" />
    <path
       style="fill:none;stroke:#000000;stroke-width:0.26458332px;stroke-linecap:butt;stroke-linejoin:miter;stroke-opacity:1"
       d="M 60.098214,115.57143 L 61.232142,118.97321 H 60.47619 H 60.098214 H 59.720238 L 60.098214,115.57143"
       id="path863"
       inkscape:connector-curvature="0"
       sodipodi:nodetypes="cccccc" />
    <path
       style="fill:none;stroke:#000000;stroke-width:0.26458332px;stroke-linecap:butt;stroke-linejoin:miter;stroke-opacity:1"
       d="M 127.75595,126.91071 L 134.18155,126.53274 L 137.96131,125.77678 H 141.74107 H 143.25297 L 145.52083,125.39881"
       id="path865"
       inkscape:connector-curvature="0"
       sodipodi:nodetypes="cccccc" />
    <path
       style="fill:none;stroke:#000000;stroke-width:0.26458332px;stroke-linecap:butt;stroke-linejoin:miter;stroke-opacity:1"
       d="M 150.43452,118.97321 L 153.83631,125.77678 H 155.34821 H 158.37202 H 159.12797 H 159.50595 L 160.63988,125.39881"
       id="path867"
       inkscape:connector-curvature="0"
       sodipodi:nodetypes="ccccccc" />
    <path
       style="fill:none;stroke:#000000;stroke-width:0.26458332px;stroke-linecap:butt;stroke-linejoin:miter;stroke-opacity:1"
       d="M 170.08928,125.77678 L 173.49107,126.53274"
       id="path869"
       inkscape:connector-curvature="0"
       sodipodi:nodetypes="cc" />
    <path
       style="fill:none;stroke:#000000;stroke-width:0.26458332px;stroke-linecap:butt;stroke-linejoin:miter;stroke-opacity:1"
       d="M 173.49107,126.53274 L 143.63095,91.002976"
       id="path871"
       inkscape:connector-curvature="0"
       sodipodi:nodetypes="cc" />
    <path
       style="fill:none;stroke:#000000;stroke-width:0.26458332px;stroke-linecap:butt;stroke-linejoin:miter;stroke-opacity:1"
       d="M 160.2619,95.538688 L 118.68452,83.065476"
       id="path873"
       inkscape:connector-curvature="0"
       sodipodi:nodetypes="cc" />
    <path
       style="fill:none;stroke:#000000;stroke-width:0.26458332px;stroke-linecap:butt;stroke-linejoin:miter;stroke-opacity:1"
       d="M 114.90476,70.970237 L 90.714284,151.47916"
       id="path875"
       inkscape:connector-curvature="0"
       sodipodi:nodetypes="cc" />
  </g>
</svg>
